<svg version="1.1" xmlns="http://www.w3.org/2000/svg" xmlns:xlink="http://www.w3.org/1999/xlink" width="153.31078" height="71.35332" viewBox="0,0,153.31078,71.35332"><g transform="translate(-163.77104,-143.18354)"><g data-paper-data="{&quot;isPaintingLayer&quot;:true}" fill-rule="nonzero" stroke-width="1.15473" stroke-linecap="butt" stroke-linejoin="miter" stroke-miterlimit="10" stroke-dasharray="" stroke-dashoffset="0" style="mix-blend-mode: normal"><g><g fill="#ffffff" stroke="#000000"><path d="M281.3009,195.2329c0.4676,-1.2887 2.1616,-3.4226 2.6062,-3.1951c0.4492,0.224 -0.4642,2.7136 -0.9769,3.911l-1.6293,-0.7159v0v0z"/><path d="M277.1542,194.3934c0.4689,-1.2875 2.1605,-3.4203 2.6086,-3.1928c0.4469,0.2263 -0.4665,2.7125 -0.9781,3.9122l-1.6305,-0.7194v0v0z"/><path d="M273.4175,193.3749c0.4642,-1.2863 2.1582,-3.418 2.6051,-3.1928c0.4469,0.2275 -0.4665,2.7148 -0.9769,3.9122l-1.6282,-0.7194v0v0z"/><path d="M269.8194,189.1694c-0.3695,0.1374 -1.0866,-1.1894 -1.6328,-2.3857c0.4677,-0.4572 0.963,-0.8764 1.485,-1.2575c0.4238,1.3927 0.5727,3.4862 0.1478,3.6432v0v0z"/><path d="M269.7028,192.383c0.5935,-1.0438 2.3649,-2.6258 2.7136,-2.3614c0.3522,0.2644 -0.8002,2.2829 -1.4169,3.2402l-1.2967,-0.8788v0v0z"/><path d="M280.9706,188.9512c-0.4826,-0.2033 0.0451,-2.3684 0.5612,-4.0566c0.6975,0.2771 1.3915,0.5601 2.1016,0.8037c-0.791,1.627 -2.1778,3.4573 -2.6628,3.2529v0v0z"/><path d="M276.9071,187.2814c-0.5369,-0.1166 -0.6478,-1.7471 -0.4018,-3.5184c0,0 2.1582,0.1004 2.6686,0.2044c-0.4504,1.8048 -1.7137,3.4399 -2.2668,3.314v0v0z"/><path d="M272.7755,188.1683c-0.448,0.0311 -0.8164,-1.9284 -1.0011,-3.3349c0.5773,-0.2113 1.1836,-0.3799 1.8175,-0.5104c0.0993,1.4677 -0.3395,3.8141 -0.8164,3.8453v0v0z"/><path d="M286.6357,189.6683c-0.4157,-0.1178 -0.3048,-1.6513 -0.0739,-3.1571c0.1201,0.0046 0.2437,0.007 0.2437,0.007c0,0 -0.0635,-0.0024 -0.2437,-0.007c1.2471,0.0116 1.761,-0.0427 2.246,-0.1247c-0.6201,1.6363 -1.6963,3.4146 -2.1721,3.2818v0v0z"/><path d="M303.3736,190.4339c-0.4088,-0.291 0.2552,-1.9261 1.0531,-3.5023l2.1201,1.1882c-1.2379,1.396 -2.746,2.612 -3.1732,2.3141v0v0z"/><path d="M298.153,188.6879c-0.5104,-0.2229 -0.0081,-2.3441 0.5681,-4.2078c0.9238,0.0542 1.7148,0.3556 2.4954,0.6801c-0.9711,1.8268 -2.5254,3.7667 -3.0635,3.5277v0v0z"/><path d="M292.9971,188.7041c-0.4884,-0.052 -0.6397,-1.7298 -0.6489,-3.5173c0.8326,-0.1987 1.6593,-0.4515 2.5104,-0.7033c-0.3591,2.0497 -1.2852,4.2829 -1.8615,4.2206v0v0z"/><path d="M307.5849,192.9939c-0.4227,-0.3037 0.3037,-2.0404 1.1351,-3.6651c0.1651,0.0912 0.3291,0.1859 0.3291,0.1859c0,0 -0.0843,-0.052 -0.3291,-0.1859c1.2921,0.7702 1.6709,1.0554 2.045,1.3441c-1.239,1.3984 -2.754,2.6189 -3.1801,2.321v0v0z"/></g><path d="M262.085,190.5378v0v0c-0.2887,0.575 -0.6998,1.4214 -0.0508,1.8972c1.7344,1.2725 15.5762,3.4619 18.7263,4.1836c-6.9596,6.3002 -18.3048,11.2413 -26.4434,7.6258c-5.1512,-2.4492 -19.8209,-7.799 -19.8209,-7.799l-5.3915,-1.9838c-9.314,-3.3626 -21.6258,-5.5497 -31.8405,-5.552c-0.5635,0 -5.1524,-0.1374 -5.0496,0.2136c2.0334,6.918 -0.2252,18.0773 -5.6767,20.8268c-1.9169,0.9665 -5.1928,2.4653 -7.4757,1.8579c-0.9365,-0.2483 -1.7483,-0.8476 -2.1882,-1.5693c-0.4065,-0.6662 -0.8499,-2.5681 -0.9769,-3.3498c-1.2148,-7.4873 6.0161,-16.321 9.4491,-19.8291c-10.075,-1.1039 -22.1223,-11.2563 -17.7286,-20.8475c10.9099,-0.6362 18.6593,6.2679 21.3591,14.2078c0.276,0.8141 0.1882,1.7806 0.8141,2.4781c2.0392,-1.0035 24.5807,-12.3764 25.8856,-13.5069c0.2217,-0.1928 -15.4769,-15.5669 -13.172,-20.5265c3.2967,-7.0947 28.516,10.9214 32.598,8.0542c0.0474,-0.0334 0.0797,-0.0704 0.1016,-0.1097c17.5138,-9.6166 46.4318,-10.5149 56.807,-5.2771c12.1997,6.1594 23.4318,21.784 20.9538,39.0011c-8.5832,-6.0959 -10.3869,-10.8857 -22.1374,-6.1282c-4.9769,2.0127 -8.8141,-2.06 -13.5138,-2.4457c-5.4896,-0.4481 -12.6166,3.4191 -15.2286,8.5785z" fill="#ff0000" stroke="none"/><path d="M306.3932,159.1915v0v0c14.0138,14.9156 11.1824,34.1107 8.4284,34.2527c-2.2668,0.1167 -11.7864,-9.2875 -19.6917,-7.9861c-0.2401,0.0393 -0.4676,0.0843 -0.6974,0.127c-0.3903,0.0739 -0.7714,0.1525 -1.1363,0.2344c-4.5785,1.0289 -7.3487,2.4943 -12.4526,-0.217c-4.4018,-2.3361 -13.0658,-0.5012 -14.9711,4.7967c5.5081,3.1513 12.5,2.7517 18.2529,5.6316c0.2413,0.4919 -0.0659,1.119 -0.3765,1.5046c-0.239,0.298 -0.5011,0.5728 -0.754,0.858c-7.3834,8.358 -20.1662,11.6951 -29.8186,7.3533c0,0 -13.9965,-5.6085 -19.3533,-7.6223c-0.5843,-0.2194 -1.0693,-0.3984 -1.418,-0.5197l0.0011,-0.0011c-1.5,-0.3834 -3.2251,-1.1282 -3.5542,-1.2414c-0.9261,-0.314 -1.8545,-0.6016 -2.7829,-0.8926c-4.7275,-1.4884 -9.5012,-2.6789 -14.3788,-3.4873c-4.0461,-0.672 -8.1604,-1.0935 -12.381,-1.2043c-1.4619,-0.037 -2.9365,-0.0393 -4.4249,-0.0035c0.0127,0.0473 0.0196,0.0958 0.0323,0.1443c1.955,7.6894 -0.1882,16.9284 -8.4318,21.1628c-0.8256,0.4238 -1.6905,0.8152 -2.6409,1.1316c-1.985,0.6628 -4.7552,2.0023 -6.8649,0.9088c-1.448,-0.7506 -2.4734,-2.1386 -3.1512,-3.7436c-1.0693,-2.5289 -1.2714,-5.597 -0.8661,-7.5716c0.925,-4.5012 5.2679,-12.1778 9.6801,-15.097c0.0278,-0.0196 0.0566,-0.0427 0.0843,-0.0612c-3.351,-0.4896 -5.9953,-1.3591 -9.5103,-3.1004c-0.6663,-0.3303 -1.246,-0.6778 -1.7783,-1.0404c-1.8176,-1.2414 -2.9827,-2.6905 -4.3245,-4.4931c-2.8475,-3.8256 -3.4515,-7.1478 -3.3268,-11.5669c0.0116,-0.3834 0.0797,-2.5762 0.1733,-2.8072c0.4018,-0.9907 1.9526,-1.1893 3.3729,-1.1766c0.7067,0.0057 1.3834,0.06 1.8649,0.1027c0.4931,0.0439 0.9838,0.1155 1.4734,0.1883c9.8303,1.4607 18.8718,8.7078 20.3429,16.7447c0,0 13.4284,-7.1616 20.1385,-10.6963c-1.4249,-2.2171 -8.0808,-11.8833 -9.6119,-14.7863c-1.1721,-2.2205 -2.5058,-5.3129 -1.1721,-7.6905c0.1178,-0.209 0.2483,-0.4157 0.4088,-0.612c5.172,-6.3337 27.008,5.7633 33.4756,8.9699c16.5681,-10.2701 46.3555,-12.1119 57.8059,-6.7147c6.0785,2.8649 10.7493,6.4053 14.3348,10.2217zM254.3171,204.2444v0v0c8.1386,3.6155 19.4838,-1.3268 26.4445,-7.6247c-3.1501,-0.7217 -16.9918,-2.911 -18.7262,-4.1835c-0.649,-0.477 -0.2391,-1.3234 0.0496,-1.8984c2.612,-5.1594 9.739,-9.0277 15.2286,-8.5785c4.6997,0.3857 8.5358,4.4584 13.5138,2.4457c11.7505,-4.7575 13.5542,0.0335 22.1374,6.1282c2.4768,-17.2171 -8.7552,-32.8417 -20.9538,-39.0011c-10.3764,-5.2367 -39.2932,-4.3395 -56.807,5.2771c-0.0219,0.0393 -0.0542,0.0763 -0.1016,0.1097c-4.082,2.8672 -29.3013,-15.1489 -32.598,-8.0542c-2.3049,4.9596 13.3937,20.3337 13.172,20.5265c-1.3049,1.1305 -23.8464,12.5034 -25.8856,13.5069c-0.6259,-0.6975 -0.5381,-1.6651 -0.8141,-2.4781c-2.6998,-7.9399 -10.4492,-14.844 -21.3591,-14.2078c-4.3937,9.5912 7.6536,19.7436 17.7286,20.8475c-3.433,3.5081 -10.6639,12.3429 -9.4491,19.8291c0.127,0.7806 0.5704,2.6836 0.9769,3.3498c0.4399,0.7217 1.2517,1.3199 2.1882,1.5693c2.2829,0.6086 5.5588,-0.8914 7.4757,-1.8579c5.4515,-2.7495 7.7101,-13.9088 5.6767,-20.8268c-0.1028,-0.351 4.4861,-0.2136 5.0496,-0.2136c10.2147,0.0023 22.5265,2.1894 31.8405,5.552l5.3915,1.9838c0,0 14.6697,5.3498 19.8209,7.799z" fill="#000000" stroke="none"/><path d="M251.0723,188.8449c-6.8244,-2.7055 -7.8752,-13.9341 -4.7297,-18.6696c0.6697,-1.0081 2.3187,-3.306 3.2528,-2.9735c1.7356,0.6178 -0.142,1.8418 -0.7101,2.8095c-2.5081,4.2667 -2.0774,10.5519 0.2817,14.7944c0.6028,1.0831 1.7714,1.8787 2.6709,2.7182c0.9227,0.8511 0.1929,1.6998 -0.7656,1.321v0v0z" fill="#000000" stroke="none"/><path d="M238.6116,173.6429c-0.1859,1.6409 -0.4422,1.9619 -0.4572,3.388c-0.0462,4.5519 1.881,6.9399 5.1339,9.5011c0.7945,0.6259 0.6039,1.6097 -0.6085,1.4873c-2.4896,-0.2529 -3.6605,-2.3972 -4.7795,-3.9653c-1.6766,-2.6882 -2.3868,-6.9469 -1.888,-10.1097c0.3153,-2.0139 2.813,-2.1813 2.5993,-0.3014v0v0z" fill="#000000" stroke="none"/></g><g stroke="none"><path d="M228.7468,207.3495v0v0c-1.2448,-2.2194 10.9584,-6.5104 9.8648,-12.8868c-0.0531,-0.3083 -0.2113,-0.9226 -0.5323,-1.194c0,-0.0023 0,-0.0046 0,-0.0069c0,0 10.4284,-5.2841 16.6547,5.6616c-2.2148,-0.7251 -2.821,2.4642 -3.6628,3.388c-3.7413,4.1039 -11.1247,7.0242 -17.4445,6.4434c-1.3291,-0.1259 -4.246,-0.2748 -4.8799,-1.4053z" fill="#ff0000"/><path d="M254.734,198.9234v0v0c1.0127,0.3326 1.4353,2.0601 1.1189,2.8106c-1.3117,3.0866 -5.9191,5.0474 -10.2725,6.731c-2.426,0.9365 -4.9041,1.4688 -7.5773,1.7736c-2.7794,0.3176 -14.7067,0.2102 -14.493,-3.1801c0.1859,-3.0081 11.8221,-5.5658 13.6789,-13.6697c0.3857,-0.336 0.6744,-0.3037 0.8903,-0.1201c0.321,0.2714 0.4792,0.8845 0.5323,1.194c1.0936,6.3753 -11.1096,10.6674 -9.8648,12.8868c0.6339,1.1316 3.5508,1.2806 4.8799,1.4053c6.3187,0.5808 13.7032,-2.3395 17.4445,-6.4434c0.8418,-0.9238 1.448,-4.1143 3.6628,-3.388z" fill="#000000"/></g><g stroke="none"><path d="M261.3414,156.0102v0v0c-1.0878,-9.4296 13.1292,-13.6616 15.8706,-7.806c1.9838,4.2367 -5.6813,13.9099 -11.1374,12.6789c-2.5127,-0.5658 -4.4942,-2.8187 -4.7332,-4.8729z" fill="#ffffff"/><path d="M269.13,152.7758c0.9827,0 1.8718,0.2656 2.5162,0.6963c0.6455,0.4295 1.0439,1.0231 1.0439,1.6778c0,0.6547 -0.3984,1.2483 -1.0439,1.6778c-0.6444,0.4307 -1.5335,0.6963 -2.5162,0.6963c-0.9827,0 -1.8718,-0.2656 -2.5161,-0.6963c-0.6455,-0.4295 -1.0439,-1.0231 -1.0439,-1.6778c0,-0.6547 0.3984,-1.2483 1.0439,-1.6778c0.6443,-0.4307 1.5334,-0.6963 2.5161,-0.6963v0z" fill="#000000"/><g><path d="M277.2108,148.2042v0v0c0.1501,0.3199 0.2287,0.6801 0.2725,1.0554c-4.411,0.0959 -10.9791,1.2009 -15.6339,2.7298c2.567,-6.485 13.0497,-8.7263 15.3614,-3.7852z" fill="#ff0000"/><path d="M279.0907,149.2712v0v0c1.7206,0.0808 2.8811,0.3868 3.0889,0.9757c0.1536,0.433 -0.3833,0.9296 -0.9561,0.9919c-1.3649,0.1455 -3.5231,-0.2402 -5.0277,-0.2217c-4.6547,0.0531 -9.157,0.8707 -13.4283,2.2044c-2.1294,0.664 -3.985,1.6848 -6.0786,2.3949c-0.4896,-0.2702 -0.1512,-0.7898 0.1132,-1.0739c0.6547,-0.7101 1.9296,-1.3995 3.5739,-2.0346c5.1813,-2.0012 14.0288,-3.4561 18.7147,-3.2367z" fill="#000000"/></g><path d="M279.0434,146.3855v0v0c3.9318,5.881 -5.9065,17.672 -13.3245,16.3556c-3.6905,-0.6547 -6.3914,-4.0612 -6.9676,-6.9399c-1.7598,-8.7471 14.8764,-17.5034 20.2921,-9.4157zM266.0746,160.8831v0v0c5.0427,1.1374 11.9572,-7.0334 11.4087,-11.6235c-0.045,-0.3753 -0.1224,-0.7355 -0.2725,-1.0554c-2.3117,-4.9411 -12.7944,-2.6998 -15.3614,3.7852c-0.4746,1.2009 -0.6778,2.5473 -0.508,4.0208c0.239,2.0542 2.2205,4.3071 4.7332,4.8729z" fill="#000000"/></g><g stroke="none"><path d="M295.7362,158.7319v0v0c-0.701,-5.8464 7.0842,-10.0254 10.1489,-4.8407c1.4942,2.5266 -3.6351,8.6247 -7.1247,7.8614c-1.6051,-0.3487 -2.8718,-1.7471 -3.0242,-3.0207z" fill="#ffffff"/><path d="M300.6819,156.3012c0.6374,0 1.2159,0.172 1.6339,0.4515c0.4192,0.2783 0.6779,0.6639 0.6779,1.0889c0,0.4249 -0.2587,0.8106 -0.6779,1.0889c-0.418,0.2794 -0.9965,0.4515 -1.6339,0.4515c-0.6374,0 -1.216,-0.1721 -1.634,-0.4515c-0.4191,-0.2783 -0.6778,-0.664 -0.6778,-1.0889c0,-0.425 0.2587,-0.8106 0.6778,-1.0889c0.418,-0.2795 0.9966,-0.4515 1.634,-0.4515v0z" fill="#000000"/><g><path d="M307.0283,153.1291v0v0c1.6847,-0.0138 2.8718,0.216 3.0508,0.7714c0.1097,0.3372 -0.2714,0.7217 -0.6802,0.7702c-0.9734,0.1131 -2.5046,-0.1871 -3.5692,-0.1732c-3.3153,0.0427 -6.5116,0.6766 -9.5508,1.7124c-1.5104,0.5151 -2.8303,1.3095 -4.3187,1.8603c-0.3476,-0.2101 -0.1039,-0.6131 0.0797,-0.8337c0.5381,-0.6363 1.6639,-1.2529 3.1039,-1.806c3.4192,-1.3152 8.6027,-2.2748 11.8845,-2.3014z" fill="#000000"/><path d="M296.5075,154.9536v0v0c1.8464,-3.2933 6.3915,-4.7956 8.8845,-1.7413c-2.7251,0.2147 -6.1385,0.8637 -8.8845,1.7413z" fill="#ff0000"/></g><path d="M307.7396,152.3289v0v0c2.6074,4.1582 -4.1986,12.1755 -9.4723,11.269c-2.6212,-0.4515 -4.5415,-2.7979 -4.9503,-4.7806c-1.2494,-6.0288 9.2656,-14.7159 14.4226,-6.4884zM298.7604,161.7526v0v0c3.4908,0.7633 8.6189,-5.3348 7.1247,-7.8614c-0.1513,-0.254 -0.3222,-0.4688 -0.4931,-0.6789c-2.493,-3.0543 -7.0381,-1.552 -8.8845,1.7413c-0.6143,1.0981 -0.9388,2.388 -0.7713,3.7783c0.1524,1.2736 1.418,2.672 3.0242,3.0207z" fill="#000000"/></g></g></g></svg>